<?xml version="1.0" standalone="no"?><!DOCTYPE svg PUBLIC "-//W3C//DTD SVG 1.1//EN"
        "http://www.w3.org/Graphics/SVG/1.1/DTD/svg11.dtd">
<svg class="icon" style="" viewBox="0 0 1024 1024" version="1.1" xmlns="http://www.w3.org/2000/svg"
     width="64" height="64">
    <defs>
        <style type="text/css"></style>
    </defs>
    <path d="M96 448H32c-17.664 0-32 14.336-32 32v64c0 17.664 14.336 32 32 32h64c17.664 0 32-14.336 32-32v-64c0-17.664-14.336-32-32-32zm896 32H320c-17.664 0-32 14.336-32 32s14.336 32 32 32h672c17.664 0 32-14.336 32-32s-14.336-32-32-32zM96 704H32c-17.664 0-32 14.336-32 32v64c0 17.664 14.336 32 32 32h64c17.664 0 32-14.336 32-32v-64c0-17.664-14.336-32-32-32zm896 32H320c-17.664 0-32 14.336-32 32s14.336 32 32 32h672c17.664 0 32-14.336 32-32s-14.336-32-32-32zM96 192H32c-17.664 0-32 14.336-32 32v64c0 17.664 14.336 32 32 32h64c17.664 0 32-14.336 32-32v-64c0-17.664-14.336-32-32-32zm224 96h672c17.664 0 32-14.336 32-32s-14.336-32-32-32H320c-17.664 0-32 14.336-32 32s14.336 32 32 32z"/>
</svg>